<mxfile host="app.diagrams.net" modified="2023-03-07T17:44:20.321Z" agent="5.0 (Windows NT 10.0; Win64; x64) AppleWebKit/537.36 (KHTML, like Gecko) Chrome/110.0.0.0 Safari/537.36" etag="alrSlUBMvpHHdF8ZPxHn" version="21.0.2" type="github">
  <diagram name="Página-1" id="OLqM8g1zS567R2F8B3zY">
    <mxGraphModel dx="1122" dy="470" grid="1" gridSize="10" guides="1" tooltips="1" connect="1" arrows="1" fold="1" page="1" pageScale="1" pageWidth="827" pageHeight="1169" math="0" shadow="0">
      <root>
        <mxCell id="0" />
        <mxCell id="1" parent="0" />
        <mxCell id="qf9N6m93d-RgQ3LeR_Vi-5" value="Dep. Análisis y&amp;nbsp; Seguridad" style="swimlane;whiteSpace=wrap;html=1;" vertex="1" parent="1">
          <mxGeometry x="170" y="20" width="150" height="810" as="geometry" />
        </mxCell>
        <mxCell id="qf9N6m93d-RgQ3LeR_Vi-19" value="" style="edgeStyle=orthogonalEdgeStyle;rounded=0;orthogonalLoop=1;jettySize=auto;html=1;" edge="1" parent="qf9N6m93d-RgQ3LeR_Vi-5" source="qf9N6m93d-RgQ3LeR_Vi-16" target="qf9N6m93d-RgQ3LeR_Vi-18">
          <mxGeometry relative="1" as="geometry" />
        </mxCell>
        <mxCell id="qf9N6m93d-RgQ3LeR_Vi-16" value="Realizar un análisis de la intrusión" style="whiteSpace=wrap;html=1;fillColor=none;sketch=0;fillStyle=solid;" vertex="1" parent="qf9N6m93d-RgQ3LeR_Vi-5">
          <mxGeometry x="25" y="143.12" width="95" height="38.75" as="geometry" />
        </mxCell>
        <mxCell id="qf9N6m93d-RgQ3LeR_Vi-21" value="" style="edgeStyle=orthogonalEdgeStyle;rounded=0;orthogonalLoop=1;jettySize=auto;html=1;" edge="1" parent="qf9N6m93d-RgQ3LeR_Vi-5" source="qf9N6m93d-RgQ3LeR_Vi-18" target="qf9N6m93d-RgQ3LeR_Vi-20">
          <mxGeometry relative="1" as="geometry" />
        </mxCell>
        <mxCell id="qf9N6m93d-RgQ3LeR_Vi-18" value="Clasificar intrusión" style="whiteSpace=wrap;html=1;fillColor=none;sketch=0;fillStyle=solid;" vertex="1" parent="qf9N6m93d-RgQ3LeR_Vi-5">
          <mxGeometry x="21.25" y="230" width="102.5" height="40" as="geometry" />
        </mxCell>
        <mxCell id="qf9N6m93d-RgQ3LeR_Vi-23" value="" style="edgeStyle=orthogonalEdgeStyle;rounded=0;orthogonalLoop=1;jettySize=auto;html=1;" edge="1" parent="qf9N6m93d-RgQ3LeR_Vi-5" source="qf9N6m93d-RgQ3LeR_Vi-20" target="qf9N6m93d-RgQ3LeR_Vi-22">
          <mxGeometry relative="1" as="geometry" />
        </mxCell>
        <mxCell id="qf9N6m93d-RgQ3LeR_Vi-20" value="" style="rhombus;whiteSpace=wrap;html=1;fillColor=none;sketch=0;fillStyle=solid;" vertex="1" parent="qf9N6m93d-RgQ3LeR_Vi-5">
          <mxGeometry x="38.75" y="330" width="67.5" height="60" as="geometry" />
        </mxCell>
        <mxCell id="qf9N6m93d-RgQ3LeR_Vi-22" value="Actualizar BBDD" style="whiteSpace=wrap;html=1;fillColor=none;sketch=0;fillStyle=solid;" vertex="1" parent="qf9N6m93d-RgQ3LeR_Vi-5">
          <mxGeometry x="13.75" y="440" width="117.5" height="30" as="geometry" />
        </mxCell>
        <mxCell id="qf9N6m93d-RgQ3LeR_Vi-26" value="¿Leve?" style="text;strokeColor=none;align=center;fillColor=none;html=1;verticalAlign=middle;whiteSpace=wrap;rounded=0;" vertex="1" parent="qf9N6m93d-RgQ3LeR_Vi-5">
          <mxGeometry x="42.5" y="345" width="60" height="30" as="geometry" />
        </mxCell>
        <mxCell id="qf9N6m93d-RgQ3LeR_Vi-27" value="Sí" style="text;strokeColor=none;align=center;fillColor=none;html=1;verticalAlign=middle;whiteSpace=wrap;rounded=0;" vertex="1" parent="qf9N6m93d-RgQ3LeR_Vi-5">
          <mxGeometry x="13.75" y="390" width="60" height="30" as="geometry" />
        </mxCell>
        <mxCell id="qf9N6m93d-RgQ3LeR_Vi-28" value="No" style="text;strokeColor=none;align=center;fillColor=none;html=1;verticalAlign=middle;whiteSpace=wrap;rounded=0;" vertex="1" parent="qf9N6m93d-RgQ3LeR_Vi-5">
          <mxGeometry x="90" y="320" width="60" height="30" as="geometry" />
        </mxCell>
        <mxCell id="qf9N6m93d-RgQ3LeR_Vi-7" value="Directiva de seguridad" style="swimlane;whiteSpace=wrap;html=1;" vertex="1" parent="1">
          <mxGeometry x="460" y="20" width="149.5" height="810" as="geometry" />
        </mxCell>
        <mxCell id="qf9N6m93d-RgQ3LeR_Vi-33" value="" style="whiteSpace=wrap;html=1;fillColor=none;sketch=0;fillStyle=solid;" vertex="1" parent="qf9N6m93d-RgQ3LeR_Vi-7">
          <mxGeometry x="14.75" y="450" width="120" height="60" as="geometry" />
        </mxCell>
        <mxCell id="qf9N6m93d-RgQ3LeR_Vi-8" value="Incibe" style="swimlane;whiteSpace=wrap;html=1;" vertex="1" parent="1">
          <mxGeometry x="610" y="20" width="150" height="810" as="geometry" />
        </mxCell>
        <mxCell id="qf9N6m93d-RgQ3LeR_Vi-9" value="Sistema de Producción" style="swimlane;whiteSpace=wrap;html=1;" vertex="1" parent="1">
          <mxGeometry x="20" y="20" width="150" height="810" as="geometry" />
        </mxCell>
        <mxCell id="qf9N6m93d-RgQ3LeR_Vi-13" value="" style="edgeStyle=orthogonalEdgeStyle;rounded=0;orthogonalLoop=1;jettySize=auto;html=1;" edge="1" parent="qf9N6m93d-RgQ3LeR_Vi-9" source="qf9N6m93d-RgQ3LeR_Vi-11" target="qf9N6m93d-RgQ3LeR_Vi-12">
          <mxGeometry relative="1" as="geometry" />
        </mxCell>
        <mxCell id="qf9N6m93d-RgQ3LeR_Vi-11" value="" style="shape=waypoint;sketch=0;fillStyle=solid;size=6;pointerEvents=1;points=[];fillColor=none;resizable=0;rotatable=0;perimeter=centerPerimeter;snapToPoint=1;" vertex="1" parent="qf9N6m93d-RgQ3LeR_Vi-9">
          <mxGeometry x="50" y="30" width="20" height="20" as="geometry" />
        </mxCell>
        <mxCell id="qf9N6m93d-RgQ3LeR_Vi-15" value="" style="edgeStyle=orthogonalEdgeStyle;rounded=0;orthogonalLoop=1;jettySize=auto;html=1;" edge="1" parent="qf9N6m93d-RgQ3LeR_Vi-9" source="qf9N6m93d-RgQ3LeR_Vi-12" target="qf9N6m93d-RgQ3LeR_Vi-14">
          <mxGeometry relative="1" as="geometry" />
        </mxCell>
        <mxCell id="qf9N6m93d-RgQ3LeR_Vi-12" value="Detectar intrusión" style="whiteSpace=wrap;html=1;fillColor=none;sketch=0;fillStyle=solid;" vertex="1" parent="qf9N6m93d-RgQ3LeR_Vi-9">
          <mxGeometry x="10" y="80" width="100" height="30" as="geometry" />
        </mxCell>
        <mxCell id="qf9N6m93d-RgQ3LeR_Vi-14" value="Clasificar los principales atributos" style="whiteSpace=wrap;html=1;fillColor=none;sketch=0;fillStyle=solid;" vertex="1" parent="qf9N6m93d-RgQ3LeR_Vi-9">
          <mxGeometry x="5" y="150" width="110" height="25" as="geometry" />
        </mxCell>
        <mxCell id="qf9N6m93d-RgQ3LeR_Vi-17" value="" style="edgeStyle=orthogonalEdgeStyle;rounded=0;orthogonalLoop=1;jettySize=auto;html=1;" edge="1" parent="1" source="qf9N6m93d-RgQ3LeR_Vi-14" target="qf9N6m93d-RgQ3LeR_Vi-16">
          <mxGeometry relative="1" as="geometry" />
        </mxCell>
        <mxCell id="qf9N6m93d-RgQ3LeR_Vi-6" value="Dep. IT" style="swimlane;whiteSpace=wrap;html=1;startSize=23;" vertex="1" parent="1">
          <mxGeometry x="320" y="20" width="140" height="810" as="geometry" />
        </mxCell>
        <mxCell id="qf9N6m93d-RgQ3LeR_Vi-30" value="" style="edgeStyle=orthogonalEdgeStyle;rounded=0;orthogonalLoop=1;jettySize=auto;html=1;entryX=0.5;entryY=0;entryDx=0;entryDy=0;" edge="1" parent="qf9N6m93d-RgQ3LeR_Vi-6" source="qf9N6m93d-RgQ3LeR_Vi-24" target="qf9N6m93d-RgQ3LeR_Vi-31">
          <mxGeometry relative="1" as="geometry">
            <mxPoint x="69.5" y="450" as="targetPoint" />
          </mxGeometry>
        </mxCell>
        <mxCell id="qf9N6m93d-RgQ3LeR_Vi-24" value="Realiza el inventariado del equipo y genera lista de activos expuestos" style="whiteSpace=wrap;html=1;fillColor=none;sketch=0;fillStyle=solid;" vertex="1" parent="qf9N6m93d-RgQ3LeR_Vi-6">
          <mxGeometry x="23" y="325" width="94" height="70" as="geometry" />
        </mxCell>
        <mxCell id="qf9N6m93d-RgQ3LeR_Vi-36" value="" style="edgeStyle=orthogonalEdgeStyle;rounded=0;orthogonalLoop=1;jettySize=auto;html=1;" edge="1" parent="qf9N6m93d-RgQ3LeR_Vi-6" source="qf9N6m93d-RgQ3LeR_Vi-31" target="qf9N6m93d-RgQ3LeR_Vi-35">
          <mxGeometry relative="1" as="geometry" />
        </mxCell>
        <mxCell id="qf9N6m93d-RgQ3LeR_Vi-31" value="¿Grave?" style="rhombus;whiteSpace=wrap;html=1;fillColor=none;sketch=0;fillStyle=solid;" vertex="1" parent="qf9N6m93d-RgQ3LeR_Vi-6">
          <mxGeometry x="29.5" y="440" width="80" height="80" as="geometry" />
        </mxCell>
        <mxCell id="qf9N6m93d-RgQ3LeR_Vi-35" value="" style="whiteSpace=wrap;html=1;fillColor=none;sketch=0;fillStyle=solid;" vertex="1" parent="qf9N6m93d-RgQ3LeR_Vi-6">
          <mxGeometry x="10" y="550" width="120" height="60" as="geometry" />
        </mxCell>
        <mxCell id="qf9N6m93d-RgQ3LeR_Vi-37" value="Sí" style="text;strokeColor=none;align=center;fillColor=none;html=1;verticalAlign=middle;whiteSpace=wrap;rounded=0;" vertex="1" parent="qf9N6m93d-RgQ3LeR_Vi-6">
          <mxGeometry x="10" y="510" width="60" height="30" as="geometry" />
        </mxCell>
        <mxCell id="qf9N6m93d-RgQ3LeR_Vi-38" value="No" style="text;strokeColor=none;align=center;fillColor=none;html=1;verticalAlign=middle;whiteSpace=wrap;rounded=0;" vertex="1" parent="qf9N6m93d-RgQ3LeR_Vi-6">
          <mxGeometry x="104" y="460" width="36" height="20" as="geometry" />
        </mxCell>
        <mxCell id="qf9N6m93d-RgQ3LeR_Vi-25" value="" style="edgeStyle=orthogonalEdgeStyle;rounded=0;orthogonalLoop=1;jettySize=auto;html=1;" edge="1" parent="1" source="qf9N6m93d-RgQ3LeR_Vi-20" target="qf9N6m93d-RgQ3LeR_Vi-24">
          <mxGeometry relative="1" as="geometry" />
        </mxCell>
        <mxCell id="qf9N6m93d-RgQ3LeR_Vi-34" value="" style="edgeStyle=orthogonalEdgeStyle;rounded=0;orthogonalLoop=1;jettySize=auto;html=1;" edge="1" parent="1" source="qf9N6m93d-RgQ3LeR_Vi-31" target="qf9N6m93d-RgQ3LeR_Vi-33">
          <mxGeometry relative="1" as="geometry" />
        </mxCell>
      </root>
    </mxGraphModel>
  </diagram>
</mxfile>
